<?xml version="1.0" encoding="UTF-8" standalone="no"?>
<!-- Created with Inkscape (http://www.inkscape.org/) -->

<svg
   width="12"
   height="17"
   viewBox="0 0 3.1749999 4.4979167"
   version="1.1"
   id="svg5"
   xml:space="preserve"
   inkscape:version="1.2.2 (b0a84865, 2022-12-01)"
   sodipodi:docname="2nd_place.svg"
   xmlns:inkscape="http://www.inkscape.org/namespaces/inkscape"
   xmlns:sodipodi="http://sodipodi.sourceforge.net/DTD/sodipodi-0.dtd"
   xmlns="http://www.w3.org/2000/svg"
   xmlns:svg="http://www.w3.org/2000/svg"><sodipodi:namedview
     id="namedview7"
     pagecolor="#ffffff"
     bordercolor="#000000"
     borderopacity="0.25"
     inkscape:showpageshadow="2"
     inkscape:pageopacity="0.0"
     inkscape:pagecheckerboard="0"
     inkscape:deskcolor="#d1d1d1"
     inkscape:document-units="mm"
     showgrid="false"
     inkscape:zoom="15.241579"
     inkscape:cx="4.691115"
     inkscape:cy="9.1854"
     inkscape:window-width="1394"
     inkscape:window-height="466"
     inkscape:window-x="0"
     inkscape:window-y="25"
     inkscape:window-maximized="0"
     inkscape:current-layer="layer1" /><defs
     id="defs2" /><g
     inkscape:label="Layer 1"
     inkscape:groupmode="layer"
     id="layer1"><g
       style="fill:currentColor"
       id="g194"
       transform="matrix(0.26458333,0,0,0.26458333,-0.60678006,-1.3186198e-4)"><path
         id="path182"
         d="M 8.0003733,4.9837599e-4 6.3304514,0.86377964 4.4730295,1.1450296 3.6312326,2.8266703 2.293342,4.1450297 2.5999826,6.0004985 2.293342,7.8540141 3.6312326,9.1743266 4.4730295,10.854014 6.3304514,11.135264 8.0003733,12.000499 9.6683421,11.135264 11.527717,10.854014 12.369514,9.1743266 13.705452,7.8540141 13.400764,6.0004985 13.705452,4.1450297 12.369514,2.8266703 11.527717,1.1450296 9.6683421,0.86377964 Z M 7.8304515,3.8090922 c 0.5388089,0 0.9495623,0.1128203 1.2324218,0.3398437 0.2828596,0.2252596 0.4257813,0.5454037 0.4257813,0.9589844 0,0.2713446 -0.068511,0.5290535 -0.2050781,0.7734375 C 9.1487735,6.125767 8.9414116,6.3774631 8.6624827,6.6372172 8.4873648,6.7989808 8.3121467,6.9479916 8.135139,7.0844828 7.9580053,7.2192859 7.8311933,7.3140167 7.7562327,7.367686 H 9.6878734 V 8.1899516 H 6.3128733 V 7.4809672 C 6.5707376,7.2942587 6.8284717,7.0949773 7.0863108,6.8852641 7.3460901,6.6756265 7.5534901,6.4963617 7.7093577,6.3442485 7.9421764,6.1192408 8.1072846,5.9219636 8.2054515,5.7544047 8.3034671,5.5870978 8.353889,5.4219643 8.353889,5.2583109 8.353889,5.0620277 8.2894747,4.9110126 8.1624827,4.8051859 8.0375065,4.6973435 7.8562885,4.6430766 7.6195139,4.6430766 c -0.1771336,0 -0.3624112,0.036304 -0.5585937,0.109375 -0.1942675,0.073071 -0.3754603,0.1676123 -0.5429688,0.28125 H 6.4261546 V 4.0766703 C 6.5627214,4.0169538 6.7621173,3.9584004 7.0277171,3.8989359 7.2951814,3.8392194 7.562962,3.8090922 7.8304515,3.8090922 Z" /><path
         d="M 4,11.794 V 16 l 4,-1 4,1 V 11.794 L 9.982,12.1 8,13.126 6.018,12.1 Z"
         id="path184" /></g></g></svg>
