<?xml version="1.0" encoding="UTF-8" standalone="no"?>
<!-- Created with Inkscape (http://www.inkscape.org/) -->

<svg
   width="12"
   height="17"
   viewBox="0 0 3.1749999 4.4979166"
   version="1.1"
   id="svg1197"
   inkscape:version="1.2.2 (b0a84865, 2022-12-01)"
   sodipodi:docname="3rd_place.svg"
   xmlns:inkscape="http://www.inkscape.org/namespaces/inkscape"
   xmlns:sodipodi="http://sodipodi.sourceforge.net/DTD/sodipodi-0.dtd"
   xmlns="http://www.w3.org/2000/svg"
   xmlns:svg="http://www.w3.org/2000/svg">
  <sodipodi:namedview
     id="namedview1199"
     pagecolor="#ffffff"
     bordercolor="#000000"
     borderopacity="0.25"
     inkscape:showpageshadow="2"
     inkscape:pageopacity="0.0"
     inkscape:pagecheckerboard="0"
     inkscape:deskcolor="#d1d1d1"
     inkscape:document-units="mm"
     showgrid="false"
     inkscape:zoom="4.7674603"
     inkscape:cx="34.294989"
     inkscape:cy="18.038955"
     inkscape:window-width="1394"
     inkscape:window-height="466"
     inkscape:window-x="0"
     inkscape:window-y="25"
     inkscape:window-maximized="0"
     inkscape:current-layer="layer1" />
  <defs
     id="defs1194" />
  <g
     inkscape:label="Layer 1"
     inkscape:groupmode="layer"
     id="layer1">
    <path
       id="path182-0"
       style="fill:#000000;stroke-width:0.264583"
       d="M 1.50999,0 1.06815,0.22841 0.57671,0.30281 0.35399,0.74774 0,1.09656 0.0811,1.58748 0,2.07789 0.35399,2.42722 0.57671,2.87164 1.06815,2.94604 1.50999,3.17496 1.9513,2.94604 2.44326,2.87164 2.66599,2.42722 3.01946,2.07789 2.93836,1.58748 3.01946,1.09656 2.66599,0.74774 2.44326,0.30281 1.9513,0.22841 Z m -0.0269,0.99684 c 0.0714,0 0.1339,0.006 0.18758,0.0191 0.0537,0.0121 0.0978,0.0283 0.13281,0.0491 0.0415,0.0248 0.0722,0.055 0.0925,0.0904 0.0203,0.0355 0.0305,0.0774 0.0305,0.12505 0,0.0628 -0.0194,0.11882 -0.0584,0.16847 -0.039,0.0491 -0.0902,0.0804 -0.154,0.094 v 0.0109 c 0.0259,0.003 0.0528,0.0103 0.0817,0.0212 0.0289,0.0107 0.0553,0.0262 0.0791,0.0465 v 0.001 c 0.0248,0.0213 0.0447,0.046 0.0594,0.0744 0.0147,0.0284 0.0222,0.0661 0.0222,0.11317 0,0.0532 -0.0108,0.10326 -0.032,0.14934 -0.0207,0.0461 -0.053,0.0854 -0.0966,0.11834 -0.0425,0.0319 -0.0926,0.0567 -0.15038,0.0739 -0.0573,0.0167 -0.12675,0.0248 -0.20877,0.0248 -0.0937,0 -0.17448,-0.007 -0.24185,-0.0217 -0.0669,-0.0147 -0.12125,-0.0313 -0.1633,-0.0496 V 1.85665 h 0.0295 c 0.0435,0.0263 0.0958,0.0495 0.15606,0.0687 0.0608,0.0193 0.11627,0.0284 0.1664,0.0284 0.0294,0 0.0612,-0.002 0.0956,-0.007 0.0345,-0.005 0.0635,-0.0161 0.0873,-0.032 0.0187,-0.0127 0.0338,-0.0277 0.045,-0.0455 0.0111,-0.0183 0.0165,-0.0446 0.0165,-0.0786 0,-0.0329 -0.008,-0.0582 -0.0227,-0.076 -0.0152,-0.0183 -0.0351,-0.0311 -0.0599,-0.0387 -0.0248,-0.008 -0.0549,-0.0125 -0.0899,-0.0129 -0.0349,-10e-4 -0.0673,-0.002 -0.0971,-0.002 H 1.32784 V 1.45899 h 0.0646 c 0.0395,0 0.0745,-9.5e-4 0.1049,-0.004 0.0304,-0.003 0.0563,-0.009 0.0775,-0.0176 0.0223,-0.01 0.0395,-0.0225 0.0507,-0.0382 0.0111,-0.0162 0.0165,-0.0399 0.0165,-0.0708 0,-0.0228 -0.006,-0.0411 -0.0176,-0.0548 -0.0117,-0.0142 -0.0262,-0.025 -0.0439,-0.0331 -0.0197,-0.009 -0.0434,-0.0151 -0.0703,-0.0181 -0.0269,-0.003 -0.0495,-0.005 -0.0687,-0.005 -0.0476,0 -0.0993,0.009 -0.15503,0.0253 -0.0557,0.0162 -0.10959,0.0393 -0.16175,0.0703 H 1.09636 V 1.06752 c 0.0415,-0.0167 0.0981,-0.0323 0.1695,-0.0475 0.0714,-0.0157 0.14411,-0.0238 0.21756,-0.0238 z" />
    <path
       d="M 0.45151,3.12037 V 4.2332 L 1.50985,3.96862 2.56818,4.2332 V 3.12037 L 2.03425,3.20137 1.50985,3.47283 0.98544,3.20137 Z"
       id="path184-5"
       style="fill:#000000;stroke-width:0.264583" />
    <g
       aria-label="3"
       id="text944-4"
       style="font-size:53.5288px;-inkscape-font-specification:sans-serif;vector-effect:non-scaling-stroke;fill:#c90000;stroke-width:0.116705;stroke-linejoin:round;-inkscape-stroke:hairline"
       transform="translate(-125.07505,-145.12499)" />
  </g>
</svg>
