<?xml version="1.0" encoding="UTF-8" standalone="no"?>
<!-- Created with Inkscape (http://www.inkscape.org/) -->

<svg
   width="112"
   height="58"
   viewBox="0 0 29.633333 15.345833"
   version="1.1"
   id="svg5"
   xml:space="preserve"
   inkscape:version="1.2.2 (b0a84865, 2022-12-01)"
   sodipodi:docname="turtle.svg"
   xmlns:inkscape="http://www.inkscape.org/namespaces/inkscape"
   xmlns:sodipodi="http://sodipodi.sourceforge.net/DTD/sodipodi-0.dtd"
   xmlns="http://www.w3.org/2000/svg"
   xmlns:svg="http://www.w3.org/2000/svg"><sodipodi:namedview
     id="namedview7"
     pagecolor="#ffffff"
     bordercolor="#000000"
     borderopacity="0.25"
     inkscape:showpageshadow="2"
     inkscape:pageopacity="0.0"
     inkscape:pagecheckerboard="0"
     inkscape:deskcolor="#d1d1d1"
     inkscape:document-units="mm"
     showgrid="false"
     inkscape:zoom="0.41518454"
     inkscape:cx="140.9012"
     inkscape:cy="219.17964"
     inkscape:window-width="1394"
     inkscape:window-height="466"
     inkscape:window-x="0"
     inkscape:window-y="25"
     inkscape:window-maximized="0"
     inkscape:current-layer="layer1" /><defs
     id="defs2" /><g
     inkscape:label="Layer 1"
     inkscape:groupmode="layer"
     id="layer1"><path
       style="fill:#000000;stroke-width:0.0846667"
       d="m 7.4267066,15.264942 c -0.9896,-0.11895 -1.22828,-0.41486 -1.22637,-1.52042 7.1e-4,-0.4136 0.0336,-0.80303 0.0731,-0.86538 0.0583,-0.0919 0.19806,-0.0961 0.73954,-0.0218 0.91869,0.12595 1.92995,0.2507 2.5006,0.30848 0.6163804,0.0624 0.7704404,0.2263 0.8151204,0.86706 0.0423,0.6064 -0.0699,0.90278 -0.4234304,1.11831 -0.2386,0.14547 -0.41311,0.16733 -1.25094,0.15668 -0.53552,-0.007 -1.08797,-0.0261 -1.22767,-0.0429 z m 11.7472204,-0.11369 c -0.7598,-0.0797 -1.17613,-0.28705 -1.24308,-0.61919 -0.0205,-0.10169 -0.0557,-0.52984 -0.0783,-0.95146 -0.0246,-0.45873 -0.11129,-0.9665 -0.21599,-1.26438 -0.16271,-0.46294 -0.16522,-0.50856 -0.0358,-0.65158 0.0765,-0.0846 0.17537,-0.15379 0.2196,-0.15379 0.0442,0 0.2498,-0.1143 0.45679,-0.254 0.207,-0.1397 0.39109,-0.254 0.4091,-0.254 0.0457,0 1.15709,-0.75721 1.3201,-0.89941 0.0735,-0.0641 0.17544,-0.1165904 0.2265,-0.1165904 0.0957,0 0.70538,0.9674204 0.98711,1.5663304 0.0876,0.18627 0.19067,0.403 0.22899,0.48164 0.0383,0.0786 0.14702,0.43824 0.24155,0.79911 0.17758,0.678 0.243,2.17895 0.0988,2.26804 -0.14219,0.0879 -1.92668,0.1215 -2.61544,0.0493 z M 0.49945656,12.873782 c -0.17779,-0.0375 -0.38077,-0.12566 -0.45107,-0.19596 -0.20522,-0.20522 0.22816,-0.52575 1.57249004,-1.16301 0.65723,-0.31156 0.78603,-0.31752 1.13364,-0.0524 0.40086,0.30567 1.20575,0.68457 1.90385,0.89624 0.34009,0.10311 0.60074,0.20506 0.57924,0.22656 -0.0215,0.0215 -0.2807,0.0943 -0.57599,0.16182 -0.61559,0.1407 -3.65673,0.23335 -4.16216004,0.1268 z m 8.23958004,-0.35674 c -1.7759,-0.2007 -3.00275,-0.51358 -4.72711,-1.20551 -0.60204,-0.24158 -0.99139,-0.45845 -1.24883,-0.6956 -0.33124,-0.30514 -0.37406,-0.38639 -0.37406,-0.7098304 0,-0.33548 0.0471,-0.41487 0.57821,-0.97395 0.84232,-0.88675 1.11206,-1.32202 2.03399,-3.28218 0.62591,-1.33078 1.14032,-2.11266 1.9509,-2.96533 1.36642,-1.43738 2.82686,-2.21041995 4.8285804,-2.55585995 0.98093,-0.16928 2.4698,-0.17208 3.11369,-0.006 0.871,0.22485 1.98554,0.68571 2.9463,1.21826995 0.37253,0.20651 0.75414,0.41698 0.84802,0.46773 0.0939,0.0507 0.56084,0.35084 1.03768,0.66689 0.82481,0.54668 2.11762,1.24208 3.16927,1.70473 0.52144,0.2294 0.77292,0.51857 0.77292,0.88877 0,0.31596 -0.3204,0.96575 -0.75483,1.53087 -0.62596,0.81427 -2.14998,2.27656 -2.91406,2.79604 -0.16299,0.11081 -0.31539,0.22597 -0.33867,0.25592 -0.0647,0.0832 -1.68548,1.0320504 -2.11667,1.2391504 -1.13377,0.54456 -1.82046,0.80689 -2.87866,1.09974 -1.91101,0.52885 -4.14624,0.72723 -5.9266704,0.52601 z m 4.3180004,-0.95649 c 2.37163,-0.50425 4.04465,-1.18544 5.842,-2.3786204 1.01337,-0.67272 1.20763,-0.83102 2.23209,-1.81885 1.32423,-1.27687 2.00417,-2.37213 1.47208,-2.37125 -0.13023,2.2e-4 -0.31833,0.15849 -0.59454,0.50025 -1.48031,1.83167 -3.6503,3.44175 -5.94596,4.41176 -0.63552,0.2685404 -0.81233,0.3356504 -1.22767,0.4659904 -0.25612,0.0804 -0.61934,0.19853 -0.80716,0.26258 -0.18783,0.064 -0.42287,0.11644 -0.52233,0.11644 -0.0995,0 -0.40298,0.0538 -0.6745,0.11967 -0.99845,0.24204 -2.7967,0.34186 -4.0233904,0.22334 -1.5806,-0.15272 -3.38466,-0.55097 -4.25962,-0.94032 -0.83334,-0.3708404 -1.31233,-0.4633304 -1.31233,-0.2534204 0,0.1697604 0.81388,0.6261604 1.524,0.8546104 0.11642,0.0374 0.42122,0.14878 0.67733,0.24739 0.46853,0.18039 0.73082,0.24938 1.82034,0.47881 1.13082,0.23813 1.6178,0.27337 3.3866604,0.24508 1.20592,-0.0193 1.98232,-0.0719 2.413,-0.16346 z m -6.0061504,-1.40437 c 0.0355,-0.0698 0.2448,-0.6985004 0.46505,-1.3970004 0.22025,-0.6985 0.47366,-1.4986 0.56313,-1.778 0.0895,-0.2794 0.22135,-0.55318 0.29306,-0.60839 0.19278,-0.14843 3.9180204,-0.15537 4.1084704,-0.008 0.0811,0.0629 0.17744,0.33796 0.23059,0.65838 0.0502,0.30269 0.14979,0.87419 0.22131,1.27 0.0715,0.39582 0.17,0.96732 0.21885,1.27 0.0984,0.6094704 0.24193,0.7856204 0.57555,0.7061704 0.31968,-0.0761 0.44994,-0.20686 0.40321,-0.4046804 -0.72579,-3.07245 -0.81607,-3.54855 -0.70082,-3.6958 0.0514,-0.0656 0.26487,-0.26853 0.47442,-0.45085 0.20955,-0.18232 0.60152,-0.53481 0.87104,-0.78331 0.72792,-0.67116 0.87763,-0.75658 1.05729,-0.60326 0.0803,0.0685 1.05116,0.67037 2.15747,1.33745 1.91441,1.15435 2.02184,1.20733 2.22626,1.09793 0.23497,-0.12575 0.25485,-0.3963 0.0379,-0.51624 -0.0699,-0.0386 -0.48077,-0.28064 -0.91315,-0.53782 -0.43237,-0.25717 -0.80208,-0.46759 -0.82156,-0.46759 -0.0195,0 -0.41383,-0.2286 -0.87633,-0.508 -0.46251,-0.2794 -0.86164,-0.508 -0.88695,-0.508 -0.0253,0 -0.27683,-0.15329 -0.55891,-0.34066 -0.36184,-0.24033 -0.52717,-0.40864 -0.56142,-0.5715 -0.0267,-0.12696 -0.061,-0.28799 -0.0762,-0.35784 -0.12262,-0.56359 -0.50253,-1.84107 -0.57282,-1.92616 -0.0481,-0.0582 -0.20149,-0.10583995 -0.34092,-0.10583995 -0.23356,0 -0.24914,0.0183 -0.198,0.23283995 0.0712,0.2985 0.25472,1.09657 0.41379,1.79916 0.0744,0.32861 0.0956,0.60529 0.0525,0.68675 -0.0397,0.075 -0.63951,0.5608 -1.33301,1.0795 l -1.26091,0.94309 h -1.94937 c -1.4595704,0 -1.9698504,-0.0266 -2.0308904,-0.10584 -0.0448,-0.0582 -0.22878,-0.56303 -0.40875,-1.12183 -0.17998,-0.5588 -0.33559,-1.029 -0.3458,-1.0449 -0.0102,-0.0159 -0.0935,-0.005 -0.18518,0.024 -0.28999,0.092 -0.37111,0.45045 -0.22149,0.97859 0.24724,0.87272 0.38723,1.39671 0.43061,1.61182 0.043,0.21296 -0.057,0.55461 -0.56906,1.94418 -0.75399,2.0462804 -0.80065,2.2060004 -0.66933,2.2913404 0.17851,0.11602 0.60415,0.0597 0.6803,-0.09 z M 22.095207,9.3324516 c -0.54373,-0.10374 -0.65617,-0.1527 -0.65617,-0.28573 0,-0.0883 0.0357,-0.16054 0.0793,-0.16054 0.16118,0 1.7717,-1.66768 2.07355,-2.14715 0.40824,-0.64846 0.6412,-1.25117 0.6412,-1.65888 0,-0.29459 0.0534,-0.37672 0.51788,-0.79708 0.52309,-0.47337 1.25924,-0.88759 1.91235,-1.07604 0.37513,-0.10824 1.01585,-0.07 1.58134,0.0944 0.47773,0.13887 1.08601,0.78329 1.32032,1.39877 0.17093,0.44899 0.18136,0.55282 0.0972,0.96705 -0.14394,0.7082 -0.47507,1.29784 -1.04707,1.86455 -1.56498,1.55047 -4.12513,2.25755 -6.51982,1.80067 z m 5.04323,-3.75818 c 0.49657,-0.25395 0.61263,-0.73915 0.26617,-1.11279 -0.45044,-0.48578 -1.22424,-0.19884 -1.22424,0.45399 0,0.25758 0.0521,0.35885 0.27517,0.53463 0.30716,0.24208 0.41426,0.26155 0.6829,0.12417 z"
       id="path248" /></g></svg>
